<?xml version="1.0" encoding="UTF-8"?>
<svg id="Layer_2" data-name="Layer 2" xmlns="http://www.w3.org/2000/svg" viewBox="0 0 198.69 193.38">
  <defs>
    <style>
      .cls-1 {
        fill: #0198a8;
      }

      .cls-1, .cls-2 {
        fill-rule: evenodd;
        stroke-width: 0px;
      }

      .cls-2 {
        fill: #074c7d;
      }
    </style>
  </defs>
  <g id="Layer_1-2" data-name="Layer 1">
    <g>
      <path class="cls-2" d="M90.14,17.34s-5.96-6.68-10.12-14.99c0,0-17.34,45.16-80.02,80.2,0,0,13.19,114.7,150.83,110.73,0,0-102.06-1.99-127.35-100.07,0,0,27.46-12.1,66.65-75.87h0Z"/>
      <path class="cls-2" d="M124.45,85.62h-28v58.71c7.77,6.5,16.98,12.46,28,16.62v-34.14h-4.7l4.7-8.13v-33.06Z"/>
      <path class="cls-1" d="M133.67,49.31v69.36l4.7,8.13h-4.7v37.03c8.31,2.35,17.52,3.79,28,3.97v-86.88h-4.88l4.7-8.13.18-.36v-23.12h-28Z"/>
      <path class="cls-2" d="M170.7,11.02v61.41l.18.36,4.7,8.13h-4.88v86.88c8.67-.36,17.88-1.44,28-3.25V11.02h-28Z"/>
      <path class="cls-1" d="M192.73,172.5s-106.21,21.5-138.54-72.79c-2.89-2.89,28-17.88,53.65-69l19.33,30.71v-26.73S111.81,14.09,109.46,0c0,0-19.33,48.95-72.61,93.75,0,0,17.52,117.41,155.88,78.76h0Z"/>
    </g>
  </g>
</svg>