<?xml version="1.0" encoding="UTF-8"?>
<svg id="Layer_2" data-name="Layer 2" xmlns="http://www.w3.org/2000/svg" viewBox="0 0 870.31 217.05">
  <defs>
    <style>
      .cls-1 {
        fill-rule: evenodd;
      }

      .cls-1, .cls-2, .cls-3 {
        stroke-width: 0px;
      }

      .cls-1, .cls-3 {
        fill: #fff;
      }

      .cls-2 {
        fill: none;
      }
    </style>
  </defs>
  <g id="Layer_1-2" data-name="Layer 1">
    <g>
      <g>
        <g>
          <g>
            <polygon class="cls-3" points="829.17 34.46 826.01 38.97 784.52 98.09 769.37 119.68 741.74 159.06 730.08 159.06 763.71 111.08 778.78 89.56 817.4 34.46 829.17 34.46"/>
            <polygon class="cls-3" points="829.58 23.84 830.07 32.6 830.56 41.36 822.57 37.15 814.57 32.94 822.07 28.39 829.58 23.84"/>
          </g>
          <polygon class="cls-3" points="784.52 98.09 769.37 119.68 763.71 111.08 733.43 65.06 762.29 65.06 778.78 89.56 784.52 98.09"/>
        </g>
        <polygon class="cls-3" points="864.96 17.79 870.31 20.61 869.73 10.3 869.15 0 860.32 5.35 851.5 10.7 854.93 12.51 854.82 12.51 789.56 105.61 774.37 127.28 752.1 159.06 765.81 159.06 781.03 137.38 795.28 159.06 825.51 159.06 796.29 115.62 864.96 17.79"/>
      </g>
      <path class="cls-2" d="M676.38,92.94l-4.2,12.96c2.95.21,5.87.45,8.77.69l-4.32-13.66h-.26Z"/>
      <path class="cls-2" d="M665.98,125.06h20.81l-5.83-18.46c-2.9-.25-5.83-.48-8.77-.69l-6.2,19.15Z"/>
      <path class="cls-2" d="M383.6,131.22c0,6.04,3.34,9.38,9.25,9.38,5.52,0,8.61-3.08,8.61-11.95v-9.65c-8.91,1.21-17.66,2.46-26.24,3.74h8.38v8.48Z"/>
      <path class="cls-3" d="M321.28,128.65c20.17,0,33.14-8.86,33.14-31.6s-16.06-29.55-33.14-29.55h-43.55v72.96c7.51-1.66,15.5-3.33,23.89-5v-6.81h19.66ZM301.63,86.65h16.06c7.32,0,12.85,3.47,12.85,12.08s-5.4,11.43-12.85,11.43h-16.06v-23.51Z"/>
      <path class="cls-3" d="M277.74,159.23h23.89v-23.76c-8.39,1.67-16.39,3.34-23.89,5v18.77Z"/>
      <path class="cls-3" d="M401.45,119v9.65c0,8.86-3.08,11.95-8.61,11.95-5.91,0-9.25-3.34-9.25-9.38v-8.48h-22.48v3.98c0,20.43,7.84,34.43,32.11,34.43,21.58,0,32.11-10.41,32.11-30.96v-14.27c-8.07.99-16.04,2.01-23.89,3.07Z"/>
      <path class="cls-3" d="M401.45,67.51v51.5c7.85-1.06,15.83-2.09,23.89-3.07v-48.42h-23.89Z"/>
      <path class="cls-3" d="M463.25,91.92c0-6.04,6.42-7.84,11.56-7.84,7.32,0,15.16,2.7,14.77,11.05h23.89c-.13-20.68-18.5-29.55-36.74-29.55-17.21,0-37.38,7.84-37.38,27.88,0,9.5,4.39,15.52,10.56,19.63,16.96-1.84,34.21-3.47,51.55-4.84-3.64-1.78-7.64-3.14-11.63-4.26-13.36-3.73-26.59-5.01-26.59-12.07Z"/>
      <path class="cls-3" d="M466.2,119.92c13.23,3.73,26.33,5.27,26.33,13.36,0,6.81-7.45,9.38-14.64,9.38-10.15,0-16.83-3.47-17.34-14.26h-23.89c.13,23.51,18.76,32.76,39.82,32.76s39.95-7.45,39.95-30.7c0-11.58-6.53-18.07-14.97-22.2-17.34,1.37-34.59,3-51.55,4.84,4.76,3.17,10.58,5.21,16.29,6.83Z"/>
      <path class="cls-3" d="M589.53,103.91v55.32h23.9v-55.47c-7.89-.04-15.86.01-23.9.15Z"/>
      <path class="cls-3" d="M640.79,88.06v-20.55h-78.62v20.55h27.36v15.85c8.03-.13,16-.18,23.9-.15v-15.7h27.36Z"/>
      <path class="cls-3" d="M676.38,92.94h.26l4.32,13.66c7.95.68,15.72,1.5,23.29,2.45l-15.53-41.54h-24.28l-13.89,37.14c7.32.33,14.54.74,21.64,1.26l4.2-12.96Z"/>
      <path class="cls-3" d="M680.96,106.6l5.83,18.46h-20.81l6.2-19.15c-7.09-.52-14.31-.93-21.64-1.26l-20.41,54.58h24.54l5.78-16.44h31.99l5.65,16.44h24.92l-18.76-50.18c-7.57-.95-15.34-1.76-23.29-2.45Z"/>
    </g>
    <g>
      <path class="cls-3" d="M279.13,182.34h21.83v4.08h-8.57v22.89h-4.72v-22.89h-8.54v-4.08Z"/>
      <path class="cls-3" d="M316.07,204.97c0,1.06.23,1.47,1.02,1.47.26,0,.6,0,1.06-.08v2.98c-.64.23-2,.49-2.72.49-1.74,0-2.98-.6-3.32-2.38-1.7,1.66-4.46,2.38-6.76,2.38-3.51,0-6.69-1.89-6.69-5.7,0-4.87,3.89-5.66,7.52-6.08,3.1-.57,5.85-.23,5.85-2.76,0-2.23-2.3-2.65-4.04-2.65-2.42,0-4.12.98-4.31,3.1h-4.31c.3-5.02,4.57-6.49,8.88-6.49,3.81,0,7.82,1.55,7.82,5.66v10.05ZM311.77,199.53c-1.32.87-3.4.83-5.29,1.17-1.85.3-3.51.98-3.51,3.25,0,1.93,2.45,2.49,3.97,2.49,1.89,0,4.83-.98,4.83-3.7v-3.21Z"/>
      <path class="cls-3" d="M325.98,199.04l-6.76-9.26h5.21l4.08,6.01,4.27-6.01h4.99l-6.65,9.03,7.48,10.5h-5.17l-4.95-7.21-4.8,7.21h-5.06l7.37-10.27Z"/>
      <path class="cls-3" d="M366.52,206.29c-2,2.45-4.42,3.55-7.55,3.55-4.95,0-8.5-2.95-8.5-8.01,0-3.81,3.1-6.23,6.19-7.82-1.4-1.77-2.72-3.55-2.72-5.89,0-3.89,2.95-6.42,6.61-6.42,3.48,0,6.72,2.15,6.72,6.46,0,3.17-2.27,5.44-4.87,6.84l4.19,5.06c.3-.83.64-1.89.83-3.63h3.78c-.26,2.34-.91,4.72-2.12,6.61l5.17,6.27h-5.29l-2.45-3.02ZM358.93,196.84c-1.59.98-4.16,1.85-4.16,5.06,0,2.91,1.85,4.53,4.34,4.53,3.13,0,4.27-1.93,5.1-3.02l-5.29-6.57ZM357.8,187.89c0,1.78,1.47,3.14,2.45,4.5,1.62-1.1,3.17-2.23,3.17-4.38,0-1.78-1.1-3.1-2.76-3.1s-2.87,1.17-2.87,2.98Z"/>
      <path class="cls-3" d="M394.34,182.34h5.02l10.39,26.97h-5.06l-2.53-7.14h-10.76l-2.53,7.14h-4.87l10.35-26.97ZM392.67,198.58h8.23l-4.04-11.59h-.11l-4.08,11.59Z"/>
      <path class="cls-3" d="M424.9,196.31c-.34-2.38-2.08-3.66-4.46-3.66-2.23,0-5.36,1.17-5.36,7.1,0,3.25,1.43,6.69,5.17,6.69,2.49,0,4.23-1.66,4.65-4.46h4.31c-.79,5.06-3.93,7.86-8.95,7.86-6.12,0-9.48-4.35-9.48-10.09s3.21-10.5,9.63-10.5c4.53,0,8.39,2.26,8.8,7.06h-4.31Z"/>
      <path class="cls-3" d="M445.91,196.31c-.34-2.38-2.08-3.66-4.46-3.66-2.23,0-5.36,1.17-5.36,7.1,0,3.25,1.43,6.69,5.17,6.69,2.49,0,4.23-1.66,4.64-4.46h4.31c-.79,5.06-3.93,7.86-8.95,7.86-6.12,0-9.48-4.35-9.48-10.09s3.21-10.5,9.63-10.5c4.53,0,8.39,2.26,8.8,7.06h-4.31Z"/>
      <path class="cls-3" d="M452.84,199.53c0-5.97,3.59-10.27,9.86-10.27s9.86,4.31,9.86,10.27-3.59,10.31-9.86,10.31-9.86-4.31-9.86-10.31ZM468.25,199.53c0-3.36-1.7-6.88-5.55-6.88s-5.55,3.51-5.55,6.88,1.7,6.91,5.55,6.91,5.55-3.51,5.55-6.91Z"/>
      <path class="cls-3" d="M493.3,209.31h-4.23v-2.72h-.08c-1.06,1.97-3.4,3.25-5.55,3.25-5.1,0-7.29-2.57-7.29-7.67v-12.39h4.31v11.97c0,3.44,1.4,4.68,3.74,4.68,3.59,0,4.8-2.3,4.8-5.33v-11.33h4.31v19.53Z"/>
      <path class="cls-3" d="M497.84,189.78h4.08v2.87l.08.08c1.28-2.15,3.51-3.47,6.08-3.47,4.23,0,6.91,2.26,6.91,6.65v13.41h-4.31v-12.28c-.08-3.06-1.28-4.38-3.81-4.38-2.87,0-4.72,2.27-4.72,5.14v11.52h-4.31v-19.53Z"/>
      <path class="cls-3" d="M517.57,189.78h3.25v-5.85h4.31v5.85h3.89v3.21h-3.89v10.42c0,1.78.15,2.68,2.08,2.68.6,0,1.21,0,1.81-.15v3.33c-.95.08-1.85.23-2.8.23-4.49,0-5.33-1.74-5.4-4.99v-11.52h-3.25v-3.21Z"/>
      <path class="cls-3" d="M532.23,182.34h4.31v4.08h-4.31v-4.08ZM532.23,189.78h4.31v19.53h-4.31v-19.53Z"/>
      <path class="cls-3" d="M541.22,189.78h4.08v2.87l.08.08c1.28-2.15,3.51-3.47,6.08-3.47,4.23,0,6.91,2.26,6.91,6.65v13.41h-4.31v-12.28c-.08-3.06-1.28-4.38-3.81-4.38-2.87,0-4.72,2.27-4.72,5.14v11.52h-4.31v-19.53Z"/>
      <path class="cls-3" d="M580.96,208.29c0,5.86-3.44,8.76-9.59,8.76-3.93,0-8.35-1.51-8.73-6.08h4.31c.53,2.45,2.49,2.87,4.68,2.87,3.48,0,5.02-1.78,5.02-4.99v-2.98h-.08c-1.21,2.15-3.44,3.44-5.86,3.44-6.19,0-8.76-4.68-8.76-10.27,0-5.25,3.28-9.78,8.84-9.78,2.45,0,4.68,1.02,5.78,3.21h.08v-2.68h4.31v18.51ZM576.66,199.11c0-3.36-1.51-6.46-5.25-6.46s-5.14,3.55-5.14,6.8,1.55,6.46,5.14,6.46c3.81,0,5.25-3.48,5.25-6.8Z"/>
      <path class="cls-3" d="M599.52,200.32c0,4.16,3.06,5.78,6.84,5.78,4.16,0,5.7-2.04,5.7-4.08s-1.13-2.91-2.23-3.33c-1.89-.72-4.34-1.21-8.04-2.23-4.61-1.25-5.97-4.04-5.97-6.84,0-5.4,4.99-7.93,9.86-7.93,5.63,0,10.35,2.98,10.35,8.61h-4.72c-.23-3.47-2.57-4.76-5.82-4.76-2.19,0-4.95.79-4.95,3.51,0,1.89,1.28,2.95,3.21,3.48.42.11,6.38,1.66,7.78,2.08,3.55,1.06,5.25,4.08,5.25,6.88,0,6.04-5.36,8.46-10.73,8.46-6.16,0-11.14-2.95-11.26-9.63h4.72Z"/>
      <path class="cls-3" d="M623.67,200.66c0,3.06,1.66,5.78,5.25,5.78,2.49,0,4-1.1,4.76-3.25h4.08c-.95,4.27-4.57,6.65-8.84,6.65-6.12,0-9.56-4.27-9.56-10.27,0-5.55,3.63-10.31,9.44-10.31,6.16,0,9.93,5.55,9.22,11.4h-14.35ZM633.72,197.83c-.15-2.72-2-5.18-4.91-5.18s-5.02,2.27-5.14,5.18h10.05Z"/>
      <path class="cls-3" d="M641.32,189.78h4.04v3.78h.08c.49-2.08,3.06-4.31,5.7-4.31.98,0,1.25.08,1.62.11v4.16c-.6-.08-1.25-.19-1.85-.19-2.95,0-5.29,2.38-5.29,6.69v9.29h-4.31v-19.53Z"/>
      <path class="cls-3" d="M652.69,189.78h4.68l4.95,15h.08l4.76-15h4.46l-6.99,19.53h-4.83l-7.1-19.53Z"/>
      <path class="cls-3" d="M674.35,182.34h4.31v4.08h-4.31v-4.08ZM674.35,189.78h4.31v19.53h-4.31v-19.53Z"/>
      <path class="cls-3" d="M696.52,196.31c-.34-2.38-2.08-3.66-4.46-3.66-2.23,0-5.36,1.17-5.36,7.1,0,3.25,1.43,6.69,5.17,6.69,2.49,0,4.23-1.66,4.65-4.46h4.31c-.79,5.06-3.93,7.86-8.95,7.86-6.12,0-9.48-4.35-9.48-10.09s3.21-10.5,9.63-10.5c4.53,0,8.39,2.26,8.8,7.06h-4.31Z"/>
      <path class="cls-3" d="M707.71,200.66c0,3.06,1.66,5.78,5.25,5.78,2.49,0,4-1.1,4.76-3.25h4.08c-.95,4.27-4.57,6.65-8.84,6.65-6.12,0-9.56-4.27-9.56-10.27,0-5.55,3.63-10.31,9.44-10.31,6.16,0,9.93,5.55,9.22,11.4h-14.35ZM717.76,197.83c-.15-2.72-2-5.18-4.91-5.18s-5.02,2.27-5.14,5.18h10.05Z"/>
      <path class="cls-3" d="M728.61,203.04c.23,2.5,2.11,3.4,4.42,3.4,1.62,0,4.46-.34,4.34-2.57-.11-2.27-3.25-2.53-6.38-3.25-3.17-.68-6.27-1.81-6.27-5.78,0-4.27,4.61-5.59,8.16-5.59,4,0,7.63,1.66,8.16,6.01h-4.49c-.38-2.04-2.08-2.61-3.97-2.61-1.25,0-3.55.3-3.55,2,0,2.11,3.17,2.42,6.34,3.13,3.13.72,6.31,1.85,6.31,5.7,0,4.65-4.68,6.35-8.73,6.35-4.91,0-8.57-2.19-8.65-6.8h4.31Z"/>
      <path class="cls-3" d="M745.31,204.21h5.25v5.1c-.04,3.1-2.12,5.36-5.1,5.97v-2.3c1.66-.42,2.49-2.04,2.45-3.66h-2.61v-5.1Z"/>
      <path class="cls-3" d="M766.59,182.34h4.72v26.97h-4.72v-26.97Z"/>
      <path class="cls-3" d="M776.49,189.78h4.08v2.87l.08.08c1.28-2.15,3.51-3.47,6.08-3.47,4.23,0,6.91,2.26,6.91,6.65v13.41h-4.31v-12.28c-.08-3.06-1.28-4.38-3.81-4.38-2.87,0-4.72,2.27-4.72,5.14v11.52h-4.31v-19.53Z"/>
      <path class="cls-3" d="M811.36,196.31c-.34-2.38-2.08-3.66-4.46-3.66-2.23,0-5.36,1.17-5.36,7.1,0,3.25,1.43,6.69,5.18,6.69,2.49,0,4.23-1.66,4.64-4.46h4.31c-.79,5.06-3.93,7.86-8.95,7.86-6.12,0-9.48-4.35-9.48-10.09s3.21-10.5,9.63-10.5c4.53,0,8.39,2.26,8.8,7.06h-4.31Z"/>
      <path class="cls-3" d="M819.53,204.21h5.25v5.1h-5.25v-5.1Z"/>
    </g>
    <g>
      <path class="cls-1" d="M90.14,33.12s-5.96-6.68-10.12-14.99c0,0-17.34,45.16-80.02,80.2,0,0,13.19,114.7,150.83,110.73,0,0-102.06-1.99-127.35-100.07,0,0,27.46-12.1,66.65-75.87h0Z"/>
      <path class="cls-1" d="M124.45,101.4h-28v58.71c7.77,6.5,16.98,12.46,28,16.62v-34.14h-4.7l4.7-8.13v-33.06Z"/>
      <path class="cls-1" d="M133.67,65.1v69.36l4.7,8.13h-4.7v37.03c8.31,2.35,17.52,3.79,28,3.97v-86.88h-4.88l4.7-8.13.18-.36v-23.12h-28Z"/>
      <path class="cls-1" d="M170.7,26.8v61.41l.18.36,4.7,8.13h-4.88v86.88c8.67-.36,17.88-1.44,28-3.25V26.8h-28Z"/>
      <path class="cls-1" d="M192.73,188.29s-106.21,21.5-138.54-72.79c-2.89-2.89,28-17.88,53.65-69l19.33,30.71v-26.73s-15.35-20.59-17.7-34.68c0,0-19.33,48.95-72.61,93.75,0,0,17.52,117.41,155.88,78.76h0Z"/>
    </g>
  </g>
</svg>